
<svg width="1000" height="1000" viewBox="0 0 1000 1000" fill="none" xmlns="http://www.w3.org/2000/svg">
  <rect width="1000" height="1000" rx="200" fill="black"/>
  <path d="M677.4 350.9C696.2 364.4 718.1 373.1 741.5 376.5C766.2 380.1 791.4 377.9 815.2 370.2V498.8C791.4 506.4 766.2 508.7 741.5 505.1C718.1 501.7 696.2 493 677.4 479.5V615.3C677.4 709.7 600.8 786.3 506.4 786.3C476.9 786.3 449.3 778.6 425.8 764.9C384.9 790 332.5 788.1 293.1 759.4C253.7 730.8 237.3 680.5 251.7 633.1C266.1 585.6 308.1 552.6 358 549.5V678.1C348.4 682.6 340.9 690.3 336.8 700.1C329.2 717.9 332.6 738.3 344.9 753C368.3 782 411 785.1 438.3 759.4C453.4 743.1 459.8 719.7 455.2 697.5V213.7H582.6C582.6 232.3 585 250.8 590.6 268.5C596.2 286.3 604.8 302.9 616.2 317.6C635 339.2 655 352.5 677.4 350.9Z" fill="white"/>
</svg>
